<svg width="56" height="60" viewBox="0 0 56 60" fill="none" xmlns="http://www.w3.org/2000/svg">
<g filter="url(#filter0_d_0_1)">
<rect x="3" y="1" width="50" height="54" rx="10" fill="#7273DC"/>
<rect x="3.5" y="1.5" width="49" height="53" rx="9.5" stroke="#989BFF"/>
</g>
<path d="M19.0909 26.7989C19.5317 22.2878 23.3788 18.4523 27.8899 18C27.5578 20.0838 26.0121 21.8299 26.1495 24.0224C25.9148 27.5775 28.7371 31.041 32.3208 31.3787C34.3359 31.7966 36.2251 30.8864 38.0913 30.2853C38.9959 30.8749 38.286 31.8195 37.9768 32.5408C35.956 36.5997 30.9927 38.861 26.6018 37.6931C21.856 36.5882 18.3868 31.6478 19.0909 26.7989ZM20.4591 27.4573C20.0355 32.3348 24.5294 36.8916 29.4126 36.5539C32.2807 36.5195 34.708 34.7506 36.4483 32.6095C32.9334 33.4167 28.926 32.5351 26.6648 29.5697C24.3691 26.9363 24.289 23.1637 25.3939 19.9922C22.7376 21.578 20.5622 24.2514 20.4591 27.4573Z" fill="white"/>
<defs>
<filter id="filter0_d_0_1" x="0" y="0" width="56" height="60" filterUnits="userSpaceOnUse" color-interpolation-filters="sRGB">
<feFlood flood-opacity="0" result="BackgroundImageFix"/>
<feColorMatrix in="SourceAlpha" type="matrix" values="0 0 0 0 0 0 0 0 0 0 0 0 0 0 0 0 0 0 127 0" result="hardAlpha"/>
<feMorphology radius="1" operator="dilate" in="SourceAlpha" result="effect1_dropShadow_0_1"/>
<feOffset dy="2"/>
<feGaussianBlur stdDeviation="1"/>
<feComposite in2="hardAlpha" operator="out"/>
<feColorMatrix type="matrix" values="0 0 0 0 0 0 0 0 0 0 0 0 0 0 0 0 0 0 0.04 0"/>
<feBlend mode="normal" in2="BackgroundImageFix" result="effect1_dropShadow_0_1"/>
<feBlend mode="normal" in="SourceGraphic" in2="effect1_dropShadow_0_1" result="shape"/>
</filter>
</defs>
</svg>
