<svg width="62" height="60" viewBox="0 0 62 60" fill="none" xmlns="http://www.w3.org/2000/svg">
<rect x="0.5" y="0.5" width="61" height="59" rx="9.5" fill="#F1F5FD" stroke="#F1F5FD"/>
<g clip-path="url(#clip0_0_1)">
<g opacity="0.85">
<path d="M29.2259 19.0967C30.3461 18.3839 31.5102 18.9279 32.594 19.4345C32.8123 19.5365 33.0273 19.6369 33.238 19.7253C34.6523 20.409 36.0926 21.0388 37.5329 21.6686C39.7187 22.6244 41.9046 23.5802 44 24.7245V26.0324C42.1421 27.2377 40.1036 28.0997 38.0644 28.962C36.8205 29.4879 35.5764 30.014 34.3728 30.6181C33.9656 30.7731 33.5504 30.9795 33.1294 31.1888C31.7623 31.8684 30.3339 32.5784 28.918 31.656C27.4045 30.9154 25.855 30.244 24.3055 29.5726C21.8207 28.4959 19.3359 27.4192 17 26.0577V24.8174C19.418 23.4226 21.9836 22.3119 24.549 21.2013C26.1194 20.5214 27.6897 19.8416 29.2259 19.0967ZM17.8438 25.273C17.8522 25.3173 17.8659 25.3827 17.8796 25.4481C17.8933 25.5135 17.907 25.5788 17.9155 25.6231C20.4296 26.8635 22.9969 27.9992 25.5641 29.1348C27.2142 29.8647 28.8642 30.5946 30.5 31.3522C32.2029 30.5557 33.9253 29.799 35.6477 29.0423C38.1583 27.9394 40.6687 26.8365 43.1183 25.6105V25.2645C40.4517 23.9367 37.7219 22.7334 34.9924 21.5303C33.4899 20.868 31.9875 20.2058 30.4958 19.5228C28.6473 20.394 26.7767 21.2192 24.906 22.0444C22.5371 23.0894 20.168 24.1344 17.8438 25.273Z" fill="#4B50BE"/>
<path d="M29.2259 19.0967C30.3461 18.3839 31.5102 18.9279 32.594 19.4345C32.8123 19.5365 33.0273 19.6369 33.238 19.7253C34.6523 20.409 36.0926 21.0388 37.5329 21.6686C39.7187 22.6244 41.9046 23.5802 44 24.7245V26.0324C42.1421 27.2377 40.1036 28.0997 38.0644 28.962C36.8205 29.4879 35.5764 30.014 34.3728 30.6181C33.9656 30.7731 33.5504 30.9795 33.1294 31.1888C31.7623 31.8684 30.3339 32.5784 28.918 31.656C27.4045 30.9154 25.855 30.244 24.3055 29.5726C21.8207 28.4959 19.3359 27.4192 17 26.0577V24.8174C19.418 23.4226 21.9836 22.3119 24.549 21.2013C26.1194 20.5214 27.6897 19.8416 29.2259 19.0967ZM17.8438 25.273C17.8522 25.3173 17.8659 25.3827 17.8796 25.4481C17.8933 25.5135 17.907 25.5788 17.9155 25.6231C20.4296 26.8635 22.9969 27.9992 25.5641 29.1348C27.2142 29.8647 28.8642 30.5946 30.5 31.3522C32.2029 30.5557 33.9253 29.799 35.6477 29.0423C38.1583 27.9394 40.6687 26.8365 43.1183 25.6105V25.2645C40.4517 23.9367 37.7219 22.7334 34.9924 21.5303C33.4899 20.868 31.9875 20.2058 30.4958 19.5228C28.6473 20.394 26.7767 21.2192 24.906 22.0444C22.5371 23.0894 20.168 24.1344 17.8438 25.273Z" stroke="#3C3FAA"/>
</g>
<g opacity="0.85">
<path d="M17 29.8883C18.1855 28.9433 19.6283 28.3696 21.147 28.2683C20.4265 28.9794 19.5497 29.4608 18.6745 29.9413C18.3814 30.1023 18.0884 30.2632 17.8016 30.4325C18.2009 30.9041 18.7659 31.1623 19.3202 31.4155C19.4452 31.4726 19.5697 31.5295 19.6916 31.5885C22.1075 32.6319 24.5047 33.7129 26.9019 34.7938C28.1005 35.3343 29.2991 35.8747 30.5 36.4105C32.1584 35.6325 33.8375 34.8978 35.5166 34.1632C38.1258 33.0215 40.7349 31.88 43.2659 30.576C42.8563 30.288 42.4253 30.0304 41.9943 29.7728C41.2446 29.3246 40.4947 28.8764 39.8572 28.2683C41.3633 28.3611 42.7386 29.0024 44 29.7871V31.0949C42.1302 32.302 40.0816 33.1697 38.0332 34.0374C36.7957 34.5617 35.5582 35.0859 34.3602 35.6849C33.9547 35.8393 33.541 36.0452 33.1213 36.2542C31.7638 36.9299 30.3441 37.6366 28.9391 36.7311C27.4243 35.9899 25.8734 35.3176 24.3228 34.6454C21.8313 33.5653 19.3403 32.4854 17 31.1202V29.8883Z" fill="#4B50BE"/>
<path d="M17 29.8883C18.1855 28.9433 19.6283 28.3696 21.147 28.2683C20.4265 28.9794 19.5497 29.4608 18.6745 29.9413C18.3814 30.1023 18.0884 30.2632 17.8016 30.4325C18.2009 30.9041 18.7659 31.1623 19.3202 31.4155C19.4452 31.4726 19.5697 31.5295 19.6916 31.5885C22.1075 32.6319 24.5047 33.7129 26.9019 34.7938C28.1005 35.3343 29.2991 35.8747 30.5 36.4105C32.1584 35.6325 33.8375 34.8978 35.5166 34.1632C38.1258 33.0215 40.7349 31.88 43.2659 30.576C42.8563 30.288 42.4253 30.0304 41.9943 29.7728C41.2446 29.3246 40.4947 28.8764 39.8572 28.2683C41.3633 28.3611 42.7386 29.0024 44 29.7871V31.0949C42.1302 32.302 40.0816 33.1697 38.0332 34.0374C36.7957 34.5617 35.5582 35.0859 34.3602 35.6849C33.9547 35.8393 33.541 36.0452 33.1213 36.2542C31.7638 36.9299 30.3441 37.6366 28.9391 36.7311C27.4243 35.9899 25.8734 35.3176 24.3228 34.6454C21.8313 33.5653 19.3403 32.4854 17 31.1202V29.8883Z" stroke="#3C3FAA"/>
</g>
<g opacity="0.85">
<path d="M17 34.9508C18.1855 34.0058 19.6283 33.4363 21.1428 33.3308C20.3871 34.0702 19.4679 34.5758 18.5503 35.0804C18.2795 35.2293 18.0088 35.3782 17.7425 35.533C18.7817 36.2896 19.961 36.7869 21.1397 37.2839C21.5449 37.4548 21.9501 37.6256 22.3494 37.8069C22.5148 37.8809 22.6803 37.9549 22.8458 38.0289C25.3977 39.17 27.9526 40.3124 30.5 41.4772C32.0336 40.7682 33.5815 40.0883 35.1295 39.4084C37.8737 38.203 40.6179 36.9976 43.2828 35.63C42.9242 35.3949 42.5553 35.1752 42.1866 34.9558C41.3714 34.4704 40.5573 33.9857 39.8572 33.335C41.3633 33.4194 42.7386 34.0649 44 34.8496V36.1574C42.2212 37.3262 40.2645 38.1562 38.3074 38.9863C37.1917 39.4595 36.076 39.9328 34.993 40.4689C34.5292 40.6634 34.0729 40.8811 33.6162 41.099C32.6064 41.5808 31.5952 42.0633 30.5 42.2957C28.7429 41.7685 27.0807 40.9787 25.4185 40.1888C24.367 39.6891 23.3154 39.1893 22.2397 38.7561C21.7712 38.5403 21.2961 38.3361 20.8209 38.1317C19.5033 37.5652 18.1844 36.9981 17 36.1827V34.9508Z" fill="#4B50BE"/>
<path d="M17 34.9508C18.1855 34.0058 19.6283 33.4363 21.1428 33.3308C20.3871 34.0702 19.4679 34.5758 18.5503 35.0804C18.2795 35.2293 18.0088 35.3782 17.7425 35.533C18.7817 36.2896 19.961 36.7869 21.1397 37.2839C21.5449 37.4548 21.9501 37.6256 22.3494 37.8069C22.5148 37.8809 22.6803 37.9549 22.8458 38.0289C25.3977 39.17 27.9526 40.3124 30.5 41.4772C32.0336 40.7682 33.5815 40.0883 35.1295 39.4084C37.8737 38.203 40.6179 36.9976 43.2828 35.63C42.9242 35.3949 42.5553 35.1752 42.1866 34.9558C41.3714 34.4704 40.5573 33.9857 39.8572 33.335C41.3633 33.4194 42.7386 34.0649 44 34.8496V36.1574C42.2212 37.3262 40.2645 38.1562 38.3074 38.9863C37.1917 39.4595 36.076 39.9328 34.993 40.4689C34.5292 40.6634 34.0729 40.8811 33.6162 41.099C32.6064 41.5808 31.5952 42.0633 30.5 42.2957C28.7429 41.7685 27.0807 40.9787 25.4185 40.1888C24.367 39.6891 23.3154 39.1893 22.2397 38.7561C21.7712 38.5403 21.2961 38.3361 20.8209 38.1317C19.5033 37.5652 18.1844 36.9981 17 36.1827V34.9508Z" stroke="#3C3FAA"/>
</g>
</g>
<defs>
<clipPath id="clip0_0_1">
<rect width="27" height="27" fill="white" transform="translate(17 17)"/>
</clipPath>
</defs>
</svg>
