<svg width="55" height="49" viewBox="0 0 55 49" fill="none" xmlns="http://www.w3.org/2000/svg">
<g filter="url(#filter0_d_0_1)">
<rect x="3" y="1" width="49" height="43" rx="10" fill="#F9FBFC"/>
<rect x="3.5" y="1.5" width="48" height="42" rx="9.5" stroke="#F8F8FA"/>
</g>
<path d="M26.9625 14.5875C26.9453 14.5906 26.9281 14.5953 26.9125 14.6C26.7266 14.6422 26.5953 14.8094 26.6 15V17.4C26.5984 17.5438 26.6734 17.6781 26.7984 17.7516C26.9234 17.8234 27.0766 17.8234 27.2016 17.7516C27.3266 17.6781 27.4016 17.5438 27.4 17.4V15C27.4047 14.8844 27.3578 14.7734 27.275 14.6953C27.1906 14.6156 27.0766 14.5766 26.9625 14.5875ZM21.2625 16.9375C21.1125 16.9641 20.9922 17.0734 20.95 17.2188C20.9078 17.3656 20.9516 17.5219 21.0625 17.625L22.7625 19.325C22.8594 19.4438 23.0141 19.4984 23.1641 19.4641C23.3125 19.4297 23.4297 19.3125 23.4641 19.1641C23.4984 19.0141 23.4437 18.8594 23.325 18.7625L21.625 17.0625C21.5422 16.9734 21.4219 16.9281 21.3 16.9375C21.2875 16.9375 21.275 16.9375 21.2625 16.9375ZM32.6125 16.9375C32.5219 16.95 32.4375 16.9953 32.375 17.0625L30.675 18.7625C30.5562 18.8594 30.5016 19.0141 30.5359 19.1641C30.5703 19.3125 30.6875 19.4297 30.8359 19.4641C30.9859 19.4984 31.1406 19.4438 31.2375 19.325L32.9375 17.625C33.0625 17.5063 33.0984 17.3203 33.025 17.1641C32.95 17.0063 32.7844 16.9156 32.6125 16.9375ZM26.9625 19C26.95 19.0031 26.9375 19.0078 26.925 19.0125C26.9 19.0141 26.875 19.0188 26.85 19.025C26.8453 19.0297 26.8422 19.0328 26.8375 19.0375C24.7156 19.1281 23 20.8563 23 23C23 25.2016 24.7984 27 27 27C29.2016 27 31 25.2016 31 23C31 20.8641 29.2984 19.1422 27.1875 19.0375C27.1734 19.0375 27.1641 19.025 27.15 19.025C27.1094 19.0094 27.0672 19.0016 27.025 19C27.0172 19 27.0078 19 27 19C26.9875 19 26.975 19 26.9625 19ZM26.975 19.8C26.9828 19.8 26.9922 19.8 27 19.8C27.0125 19.8 27.025 19.8 27.0375 19.8C28.7875 19.8203 30.2 21.2453 30.2 23C30.2 24.7688 28.7687 26.2 27 26.2C25.2328 26.2 23.8 24.7688 23.8 23C23.8 21.2406 25.2187 19.8141 26.975 19.8ZM18.8875 22.6C18.6672 22.6313 18.5125 22.8359 18.5437 23.0563C18.575 23.2766 18.7797 23.4313 19 23.4H21.4C21.5437 23.4016 21.6781 23.3266 21.7516 23.2016C21.8234 23.0766 21.8234 22.9234 21.7516 22.7984C21.6781 22.6734 21.5437 22.5984 21.4 22.6H19C18.9875 22.6 18.975 22.6 18.9625 22.6C18.95 22.6 18.9375 22.6 18.925 22.6C18.9125 22.6 18.9 22.6 18.8875 22.6ZM32.4875 22.6C32.2672 22.6313 32.1125 22.8359 32.1437 23.0563C32.175 23.2766 32.3797 23.4313 32.6 23.4H35C35.1437 23.4016 35.2781 23.3266 35.3516 23.2016C35.4234 23.0766 35.4234 22.9234 35.3516 22.7984C35.2781 22.6734 35.1437 22.5984 35 22.6H32.6C32.5875 22.6 32.575 22.6 32.5625 22.6C32.55 22.6 32.5375 22.6 32.525 22.6C32.5125 22.6 32.5 22.6 32.4875 22.6ZM23 26.55C22.9094 26.5625 22.825 26.6078 22.7625 26.675L21.0625 28.375C20.9437 28.4719 20.8891 28.6266 20.9234 28.7766C20.9578 28.925 21.075 29.0422 21.2234 29.0766C21.3734 29.1109 21.5281 29.0563 21.625 28.9375L23.325 27.2375C23.4437 27.1234 23.4797 26.9469 23.4156 26.7953C23.3531 26.6438 23.2016 26.5469 23.0375 26.55C23.025 26.55 23.0125 26.55 23 26.55ZM30.875 26.55C30.725 26.5766 30.6047 26.6859 30.5625 26.8313C30.5203 26.9781 30.5641 27.1344 30.675 27.2375L32.375 28.9375C32.4719 29.0563 32.6266 29.1109 32.7766 29.0766C32.925 29.0422 33.0422 28.925 33.0766 28.7766C33.1109 28.6266 33.0562 28.4719 32.9375 28.375L31.2375 26.675C31.1625 26.5953 31.0594 26.5516 30.95 26.55C30.9375 26.55 30.925 26.55 30.9125 26.55C30.9 26.55 30.8875 26.55 30.875 26.55ZM26.9625 28.1875C26.9453 28.1906 26.9281 28.1953 26.9125 28.2C26.7266 28.2422 26.5953 28.4094 26.6 28.6V31C26.5984 31.1438 26.6734 31.2781 26.7984 31.3516C26.9234 31.4234 27.0766 31.4234 27.2016 31.3516C27.3266 31.2781 27.4016 31.1438 27.4 31V28.6C27.4047 28.4844 27.3578 28.3734 27.275 28.2953C27.1906 28.2156 27.0766 28.1766 26.9625 28.1875Z" fill="#6B707A"/>
<defs>
<filter id="filter0_d_0_1" x="0" y="0" width="55" height="49" filterUnits="userSpaceOnUse" color-interpolation-filters="sRGB">
<feFlood flood-opacity="0" result="BackgroundImageFix"/>
<feColorMatrix in="SourceAlpha" type="matrix" values="0 0 0 0 0 0 0 0 0 0 0 0 0 0 0 0 0 0 127 0" result="hardAlpha"/>
<feMorphology radius="1" operator="dilate" in="SourceAlpha" result="effect1_dropShadow_0_1"/>
<feOffset dy="2"/>
<feGaussianBlur stdDeviation="1"/>
<feComposite in2="hardAlpha" operator="out"/>
<feColorMatrix type="matrix" values="0 0 0 0 0 0 0 0 0 0 0 0 0 0 0 0 0 0 0.04 0"/>
<feBlend mode="normal" in2="BackgroundImageFix" result="effect1_dropShadow_0_1"/>
<feBlend mode="normal" in="SourceGraphic" in2="effect1_dropShadow_0_1" result="shape"/>
</filter>
</defs>
</svg>
